<svg xmlns="http://www.w3.org/2000/svg" xmlns:xlink="http://www.w3.org/1999/xlink" width="1500" zoomAndPan="magnify" viewBox="0 0 1125 1124.99995" height="1500" preserveAspectRatio="xMidYMid meet" version="1.0"><defs><g/></defs><g fill="#0fa3b1" fill-opacity="1"><g transform="translate(264.954319, 631.20027)"><g><path d="M 230.515625 -482.796875 C 281.304688 -482.796875 321.644531 -469.878906 351.53125 -444.046875 C 381.414062 -418.222656 396.359375 -381.625 396.359375 -334.25 C 396.359375 -298.8125 386.960938 -268.820312 368.171875 -244.28125 C 349.390625 -219.738281 323.566406 -204.265625 290.703125 -197.859375 L 442.453125 0 L 286.21875 0 L 167.765625 -185.6875 L 166.484375 -185.6875 L 166.484375 0 L 40.984375 0 L 40.984375 -482.796875 Z M 166.484375 -266.375 L 177.359375 -266.375 C 208.097656 -266.375 230.507812 -271.28125 244.59375 -281.09375 C 258.6875 -290.914062 265.734375 -306.070312 265.734375 -326.5625 C 265.734375 -347.050781 258.796875 -362.203125 244.921875 -372.015625 C 231.046875 -381.835938 208.523438 -386.75 177.359375 -386.75 L 166.484375 -386.75 Z M 166.484375 -266.375 "/></g></g></g><g fill="#0fa3b1" fill-opacity="1"><g transform="translate(411.090806, 901.726777)"><g><path d="M 138.234375 -482.5625 L 228.484375 -351.359375 L 318.71875 -482.5625 L 469.125 -482.5625 L 291.203125 -231.6875 L 291.203125 0 L 165.765625 0 L 165.765625 -231.6875 L -12.15625 -482.5625 Z M 138.234375 -482.5625 "/></g></g></g></svg>